# xmcd CD database file
#
# Track frame offsets:
#	150
#	17442
#	23475
#	43863
#	62181
#	82496
#	104444
#	124214
#	143650
#	153326
#	168279
#	186499
#	203547
#
# Disc length: 3243 seconds
#
# Revision: 0
# Processed by: cddbd v1.4PL0 Copyright (c) Steve Scherf et al.
# Submitted via: CDex 1.50beta9
#
DISCID=ae0ca90d
DTITLE=Tigerbeat - 13 Songs
DYEAR=2003
DGENRE=Blues
TTITLE0=Doin' time
TTITLE1=Intro 2
TTITLE2=Heartbreak kid
TTITLE3=What'cha gonna do?
TTITLE4=Beat me 'till I understand
TTITLE5=If for one time we don't fight...
TTITLE6=All that glitter's not gold
TTITLE7=Yours sincerely
TTITLE8=Come on
TTITLE9=Lowdown
TTITLE10=Re-release
TTITLE11=Lookin' good
TTITLE12=Alright
EXTD=YEAR: 2003
EXTT0=
EXTT1=
EXTT2=
EXTT3=
EXTT4=
EXTT5=
EXTT6=
EXTT7=
EXTT8=
EXTT9=
EXTT10=
EXTT11=
EXTT12=
PLAYORDER=
